<?xml version="1.0" standalone="no"?>
<!DOCTYPE svg PUBLIC "-//W3C//DTD SVG 20010904//EN"
 "http://www.w3.org/TR/2001/REC-SVG-20010904/DTD/svg10.dtd">
<svg version="1.0" xmlns="http://www.w3.org/2000/svg"
 width="256.000000pt" height="256.000000pt" viewBox="0 0 256.000000 256.000000"
 preserveAspectRatio="xMidYMid meet">
<metadata>
Created by potrace 1.14, written by Peter Selinger 2001-2017
</metadata>
<g transform="translate(0.000000,256.000000) scale(0.100000,-0.100000)"
fill="#000000" stroke="none">
<path d="M1246 1983 c-1 -1 -27 -3 -59 -4 -31 -1 -57 -7 -57 -12 0 -5 7 -6 16
-3 9 3 49 6 90 6 41 0 74 4 74 9 0 7 -57 11 -64 4z"/>
<path d="M1340 1980 c-20 -5 -15 -8 23 -11 26 -2 47 -1 47 2 0 11 -43 16 -70
9z"/>
<path d="M1427 1969 c7 -7 15 -10 18 -7 3 3 -2 9 -12 12 -14 6 -15 5 -6 -5z"/>
<path d="M1074 1958 c-3 -4 5 -5 17 -3 30 6 36 14 9 12 -12 -1 -24 -5 -26 -9z"/>
<path d="M1460 1961 c0 -5 8 -8 18 -6 9 1 25 -2 35 -7 11 -5 17 -5 17 2 0 5
-6 10 -12 11 -7 0 -23 2 -35 5 -13 2 -23 0 -23 -5z"/>
<path d="M992 1943 c-24 -9 -41 -17 -39 -20 3 -2 24 3 48 11 23 8 47 12 52 9
6 -3 7 -1 3 5 -8 14 -8 14 -64 -5z"/>
<path d="M1615 1920 c44 -16 84 -30 89 -30 13 0 -2 13 -17 16 -7 1 -39 12 -71
23 -33 12 -64 21 -70 20 -6 0 25 -13 69 -29z"/>
<path d="M920 1920 c-8 -5 -12 -11 -9 -14 2 -3 11 -1 19 4 8 5 12 11 9 14 -2
3 -11 1 -19 -4z"/>
<path d="M873 1903 c-12 -2 -24 -10 -26 -17 -4 -11 1 -11 24 1 16 8 29 16 29
19 0 2 -1 3 -2 3 -2 -1 -13 -4 -25 -6z"/>
<path d="M1720 1885 c0 -3 18 -13 40 -22 22 -10 40 -21 40 -25 0 -5 5 -8 11
-8 18 0 0 17 -41 39 -42 22 -50 24 -50 16z"/>
<path d="M800 1865 c-7 -8 -17 -15 -22 -15 -16 0 -141 -86 -163 -111 l-20 -23
30 23 c26 19 78 53 165 109 14 9 28 15 33 14 4 -1 7 3 7 8 0 15 -16 12 -30 -5z"/>
<path d="M1237 1845 c-1 -2 -29 -5 -62 -8 -54 -6 -174 -33 -183 -41 -3 -3 -5
-157 -3 -227 l1 -26 273 1 272 1 0 130 0 130 -35 11 c-49 16 -251 38 -263 29z"/>
<path d="M1835 1820 c3 -5 8 -10 11 -10 2 0 4 5 4 10 0 6 -5 10 -11 10 -5 0
-7 -4 -4 -10z"/>
<path d="M1860 1812 c0 -5 7 -15 15 -22 8 -7 15 -9 15 -6 0 4 -7 14 -15 22 -8
9 -15 11 -15 6z"/>
<path d="M1554 1673 l1 -128 180 -2 c99 -1 186 0 193 3 24 7 -96 113 -199 174
-52 31 -158 80 -172 80 -2 0 -3 -57 -3 -127z"/>
<path d="M914 1765 c-61 -27 -151 -83 -195 -122 -73 -64 -99 -92 -92 -96 4 -2
83 -4 176 -4 146 0 167 2 168 16 2 31 -1 224 -3 226 -2 2 -26 -7 -54 -20z"/>
<path d="M1900 1784 c0 -7 12 -20 28 -29 38 -25 171 -163 207 -216 17 -24 33
-45 38 -47 4 -2 7 -7 7 -12 0 -4 15 -34 33 -67 18 -32 38 -77 45 -100 7 -24
17 -43 22 -43 17 0 -59 164 -107 231 -18 26 -33 49 -33 52 0 4 -14 21 -31 39
-95 101 -126 132 -158 156 -20 15 -39 31 -43 37 -5 6 -8 6 -8 -1z"/>
<path d="M570 1698 c-12 -22 -12 -22 6 -6 10 10 15 20 12 24 -4 3 -12 -5 -18
-18z"/>
<path d="M508 1639 c-18 -23 -46 -56 -61 -73 -16 -17 -37 -47 -48 -66 -11 -19
-28 -48 -39 -65 -22 -36 -24 -45 -8 -45 6 0 9 3 5 6 -12 12 102 179 181 262
12 14 15 22 8 22 -2 0 -19 -19 -38 -41z"/>
<path d="M570 1485 c-16 -22 -33 -45 -38 -50 -5 -6 -26 -46 -47 -89 -28 -57
-35 -80 -26 -86 7 -4 58 -7 114 -6 l102 1 2 115 c3 153 2 156 -42 156 -31 0
-41 -6 -65 -41z"/>
<path d="M697 1515 c-2 -5 -3 -66 -3 -135 l1 -125 268 -1 c163 -1 270 3 274 9
10 17 9 248 -2 255 -17 12 -534 9 -538 -3z"/>
<path d="M1259 1476 c-1 -63 -1 -197 0 -212 1 -7 90 -10 276 -11 l276 0 -3
136 -3 136 -272 1 -273 1 -1 -51z"/>
<path d="M1828 1516 c-3 -9 -2 -134 1 -232 l1 -31 134 1 c74 0 137 4 141 7 13
14 -87 203 -132 248 -19 18 -140 25 -145 7z"/>
<path d="M320 1369 c0 -5 5 -7 10 -4 6 3 10 8 10 11 0 2 -4 4 -10 4 -5 0 -10
-5 -10 -11z"/>
<path d="M312 1333 c-11 -21 -41 -112 -46 -139 -2 -10 -9 -39 -16 -63 -6 -23
-9 -45 -6 -48 7 -7 12 10 20 57 3 19 7 40 8 45 1 6 14 45 28 88 26 75 30 95
12 60z"/>
<path d="M2299 1197 c10 -36 16 -72 15 -81 -1 -9 2 -16 7 -16 5 0 7 10 5 23
-16 81 -29 128 -36 132 -5 3 -1 -23 9 -58z"/>
<path d="M431 1206 c-14 -48 -22 -87 -27 -136 -3 -25 -7 -57 -9 -72 -2 -16 0
-29 3 -29 4 -1 134 -3 290 -4 l282 -1 1 28 c0 15 0 73 0 128 0 55 0 104 0 108
-1 5 -120 9 -266 9 l-265 0 -9 -31z"/>
<path d="M989 1208 c0 -15 0 -71 0 -123 0 -52 0 -101 0 -108 1 -10 57 -13 271
-13 238 -1 270 1 274 15 2 9 3 70 3 136 l-2 120 -272 1 -273 1 -1 -29z"/>
<path d="M1554 1101 l1 -136 300 -1 c189 -1 302 3 306 9 4 5 5 21 3 36 -3 25
-12 93 -19 138 -2 12 -8 37 -14 56 l-12 34 -283 0 -283 0 1 -136z"/>
<path d="M2328 845 c3 -196 1 -245 -10 -246 -7 -1 -34 -1 -60 0 -27 1 -48 -2
-48 -6 0 -14 120 -10 128 4 6 9 6 243 1 476 0 9 -3 17 -7 17 -4 0 -6 -110 -4
-245z"/>
<path d="M239 1063 c0 -5 -2 -16 -4 -25 -2 -10 1 -18 6 -18 5 0 9 11 9 25 0
22 -9 37 -11 18z"/>
<path d="M232 798 l3 -212 73 -1 c39 0 72 2 72 6 0 4 -21 7 -47 7 -101 0 -90
-25 -89 207 1 113 -2 205 -7 205 -4 0 -6 -95 -5 -212z"/>
<path d="M438 883 c-3 -4 -4 -37 -4 -72 l1 -65 33 1 c17 1 46 2 62 2 61 2 93
77 50 116 -21 19 -134 34 -142 18z m113 -49 c19 -23 0 -47 -39 -50 -32 -2 -34
0 -34 36 0 30 0 30 31 30 16 0 34 -7 42 -16z"/>
<path d="M629 881 c-4 -27 -1 -123 4 -127 7 -8 125 -6 138 1 23 15 4 25 -47
25 -40 0 -55 3 -52 13 3 6 20 12 38 13 55 1 49 24 -6 24 -38 0 -45 3 -36 12 7
7 32 12 57 11 37 -1 45 1 45 16 0 16 -9 18 -70 18 -38 0 -70 -3 -71 -6z"/>
<path d="M834 878 c-24 -11 -40 -42 -40 -72 2 -63 165 -86 166 -23 0 5 -13 6
-30 2 -38 -8 -87 2 -93 20 -11 27 18 48 66 47 33 -1 47 3 47 12 0 26 -73 35
-116 14z"/>
<path d="M1012 880 c-28 -12 -46 -51 -38 -83 6 -26 57 -57 85 -52 9 2 23 4 32
4 26 2 59 40 59 70 0 15 -9 36 -19 45 -23 21 -87 30 -119 16z m79 -30 c38 -21
10 -79 -35 -72 -20 3 -46 28 -46 43 0 13 31 39 46 39 9 0 24 -5 35 -10z"/>
<path d="M1179 874 c-4 -70 -3 -102 3 -116 12 -26 38 -10 38 22 0 23 3 27 20
23 11 -3 28 -15 38 -27 9 -12 22 -25 29 -29 18 -11 43 3 43 25 0 13 -5 18 -14
15 -8 -3 -22 1 -33 9 -17 13 -17 14 4 20 23 6 35 34 23 54 -12 20 -150 23
-151 4z m114 -39 c1 -6 -15 -11 -35 -13 -28 -2 -38 1 -38 12 0 25 69 26 73 1z"/>
<path d="M1390 823 c-17 -36 -30 -67 -30 -69 0 -12 42 -2 46 11 4 9 19 15 40
15 22 0 37 -6 40 -15 4 -8 17 -15 31 -15 14 0 23 3 21 8 -62 131 -61 129 -90
130 -26 1 -31 -6 -58 -65z m64 -21 c-22 -5 -27 3 -19 29 l7 22 14 -24 c11 -20
10 -25 -2 -27z"/>
<path d="M1560 820 c0 -38 4 -71 9 -75 17 -10 37 22 35 54 -2 38 10 32 32 -15
20 -42 32 -40 59 9 25 47 35 47 30 0 -4 -46 -1 -53 24 -46 16 4 19 14 18 74 0
66 -1 68 -25 66 -16 -1 -31 -15 -49 -44 -14 -24 -27 -43 -29 -43 -2 0 -14 19
-28 43 -18 30 -32 43 -51 45 -25 2 -25 1 -25 -68z"/>
<path d="M1828 875 c-16 -9 -28 -21 -29 -28 0 -7 -2 -20 -4 -30 -5 -25 34 -66
69 -71 60 -11 121 37 109 85 -13 48 -95 72 -145 44z m83 -25 c23 -13 25 -56 3
-68 -21 -12 -55 -4 -70 15 -15 18 -7 51 15 56 27 8 32 7 52 -3z"/>
<path d="M2013 878 c-27 -13 -30 -44 -5 -57 9 -5 35 -11 57 -13 59 -6 43 -23
-20 -22 -47 1 -55 -1 -55 -17 0 -14 8 -19 33 -21 94 -4 127 7 127 42 0 19 -45
40 -86 40 -26 0 -40 15 -21 23 6 2 31 2 55 0 42 -4 54 6 30 24 -18 14 -89 14
-115 1z"/>
<path d="M1316 662 c-3 -5 1 -9 9 -9 8 0 12 4 9 9 -3 4 -7 8 -9 8 -2 0 -6 -4
-9 -8z"/>
<path d="M628 653 c7 -3 16 -2 19 1 4 3 -2 6 -13 5 -11 0 -14 -3 -6 -6z"/>
<path d="M678 653 c12 -2 32 -2 45 0 12 2 2 4 -23 4 -25 0 -35 -2 -22 -4z"/>
<path d="M1075 648 c-6 -19 -1 -115 6 -122 3 -4 6 25 5 64 -1 70 -3 81 -11 58z"/>
<path d="M1270 650 c-8 -5 -10 -10 -5 -10 6 0 17 5 25 10 8 5 11 10 5 10 -5 0
-17 -5 -25 -10z"/>
<path d="M1466 639 c-14 -11 -26 -28 -25 -37 0 -14 2 -14 6 -2 3 8 17 25 31
37 34 29 24 30 -12 2z"/>
<path d="M1518 653 c7 -3 16 -2 19 1 4 3 -2 6 -13 5 -11 0 -14 -3 -6 -6z"/>
<path d="M1550 656 c0 -2 9 -6 20 -9 11 -3 18 -1 14 4 -5 9 -34 13 -34 5z"/>
<path d="M1676 620 c-32 -48 -33 -60 -3 -59 16 1 18 2 5 6 -23 6 -23 7 6 49
l24 35 21 -29 c11 -17 21 -38 21 -47 0 -9 5 -13 10 -10 6 3 10 2 10 -2 0 -5 7
-18 16 -29 9 -10 6 -1 -7 21 -65 117 -68 118 -103 65z"/>
<path d="M1836 645 c-3 -8 -1 -15 4 -15 6 0 10 7 10 15 0 8 -2 15 -4 15 -2 0
-6 -7 -10 -15z"/>
<path d="M1358 643 c7 -3 16 -2 19 1 4 3 -2 6 -13 5 -11 0 -14 -3 -6 -6z"/>
<path d="M679 638 c-5 -17 -4 -48 3 -48 4 0 7 11 6 25 -2 21 -6 31 -9 23z"/>
<path d="M1236 625 c-3 -9 -6 -22 -5 -28 0 -7 5 -1 10 12 5 13 8 26 5 28 -2 2
-6 -3 -10 -12z"/>
<path d="M795 598 c4 -41 14 -68 26 -68 5 0 3 10 -4 23 -8 12 -13 34 -12 50 1
15 -2 27 -6 27 -4 0 -6 -15 -4 -32z"/>
<path d="M940 620 c0 -5 5 -10 11 -10 5 0 7 5 4 10 -3 6 -8 10 -11 10 -2 0 -4
-4 -4 -10z"/>
<path d="M1390 615 c7 -9 15 -13 17 -11 7 7 -7 26 -19 26 -6 0 -6 -6 2 -15z"/>
<path d="M1835 610 c-3 -5 -1 -10 4 -10 6 0 11 5 11 10 0 6 -2 10 -4 10 -3 0
-8 -4 -11 -10z"/>
<path d="M390 591 c0 -4 29 -7 65 -6 36 0 65 3 65 6 0 4 -29 7 -65 7 -36 0
-65 -4 -65 -7z"/>
<path d="M530 592 c0 -4 14 -8 30 -7 17 0 30 3 30 7 0 5 -13 8 -30 8 -16 0
-30 -4 -30 -8z"/>
<path d="M1955 591 c8 -8 245 -8 245 0 0 4 -56 6 -125 6 -69 0 -123 -3 -120
-6z"/>
<path d="M1395 580 c-3 -5 -1 -10 4 -10 6 0 11 5 11 10 0 6 -2 10 -4 10 -3 0
-8 -4 -11 -10z"/>
<path d="M1835 580 c-3 -5 -1 -10 4 -10 6 0 11 5 11 10 0 6 -2 10 -4 10 -3 0
-8 -4 -11 -10z"/>
<path d="M677 560 c-3 -11 -2 -22 2 -24 4 -3 8 6 9 20 2 29 -4 31 -11 4z"/>
<path d="M1231 575 c0 -13 28 -50 33 -44 3 2 -4 15 -14 29 -11 14 -20 21 -19
15z"/>
<path d="M1440 573 c0 -5 10 -18 23 -29 l22 -19 -20 25 c-11 14 -21 27 -22 29
-2 2 -3 0 -3 -6z"/>
<path d="M1708 563 c6 -2 18 -2 25 0 6 3 1 5 -13 5 -14 0 -19 -2 -12 -5z"/>
<path d="M1370 539 c-22 -18 -22 -19 -3 -10 12 6 25 16 28 21 9 15 3 12 -25
-11z"/>
<path d="M1626 543 c-6 -14 -5 -15 5 -6 7 7 10 15 7 18 -3 3 -9 -2 -12 -12z"/>
<path d="M904 529 c-19 -22 -19 -22 4 -8 12 8 22 17 22 21 0 12 -6 9 -26 -13z"/>
<path d="M1836 542 c-2 -4 -1 -14 3 -21 6 -9 11 -10 15 -2 4 6 2 11 -4 11 -6
0 -8 5 -5 10 3 6 4 10 1 10 -3 0 -7 -4 -10 -8z"/>
<path d="M1136 518 c3 -4 11 -5 19 -1 21 7 19 12 -4 10 -11 0 -18 -5 -15 -9z"/>
<path d="M1490 526 c0 -2 7 -7 16 -10 8 -3 12 -2 9 4 -6 10 -25 14 -25 6z"/>
<path d="M1536 518 c3 -4 11 -5 19 -1 21 7 19 12 -4 10 -11 0 -18 -5 -15 -9z"/>
<path d="M1930 519 c0 -5 5 -7 10 -4 6 3 10 8 10 11 0 2 -4 4 -10 4 -5 0 -10
-5 -10 -11z"/>
</g>
</svg>
